<svg xmlns="http://www.w3.org/2000/svg" width="35" height="37.663" viewBox="0 0 35 37.663">
  <g id="shopping-cart" transform="translate(-17.2 0)">
    <path id="Caminho_2" data-name="Caminho 2" d="M27.175,24.8H47.928A4.281,4.281,0,0,0,52.2,20.526V11.7a.1.1,0,0,0-.008-.046c0-.015-.008-.039-.008-.054s-.008-.031-.008-.046a.491.491,0,0,1-.015-.054c-.008-.015-.008-.031-.015-.046s-.008-.031-.015-.046a.376.376,0,0,1-.023-.054.169.169,0,0,0-.023-.039l-.023-.046c-.008-.015-.015-.023-.023-.039s-.023-.031-.031-.046a.136.136,0,0,0-.031-.039c-.008-.015-.023-.023-.031-.039s-.023-.023-.031-.039-.023-.023-.031-.031L51.844,11c-.015-.008-.023-.023-.039-.031s-.031-.023-.046-.031-.023-.015-.039-.023a.162.162,0,0,1-.046-.031l-.046-.023-.046-.023-.046-.023c-.015-.008-.031-.008-.046-.015a.144.144,0,0,0-.054-.015.336.336,0,0,1-.039-.008.17.17,0,0,0-.062-.008c-.008,0-.015-.008-.031-.008L25,7.127V3.458a.476.476,0,0,0-.008-.108.059.059,0,0,0-.008-.031c0-.023-.008-.046-.008-.07s-.008-.039-.015-.062-.008-.023-.008-.039l-.023-.07c0-.008-.008-.023-.008-.031a.232.232,0,0,0-.031-.062c-.008-.008-.008-.023-.015-.031a.162.162,0,0,0-.031-.046c-.008-.015-.015-.023-.023-.039s-.015-.023-.023-.039-.023-.031-.031-.046l-.023-.023L24.7,2.715l-.023-.023a.337.337,0,0,0-.054-.046c-.008-.008-.023-.015-.031-.023s-.031-.023-.046-.039a.714.714,0,0,0-.062-.039c-.008-.008-.015-.008-.023-.015-.031-.015-.07-.031-.1-.046l-5.7-2.4A1.046,1.046,0,0,0,17.84,2.01L22.9,4.147v22.9a4.278,4.278,0,0,0,3.723,4.234,4.217,4.217,0,1,0,7.833,2.167,4.139,4.139,0,0,0-.581-2.129h9.4a4.159,4.159,0,0,0-.581,2.129,4.219,4.219,0,1,0,4.219-4.219H27.175a2.185,2.185,0,0,1-2.183-2.183V24.21A4.321,4.321,0,0,0,27.175,24.8Zm5.2,8.638a2.129,2.129,0,1,1-2.129-2.129A2.132,2.132,0,0,1,32.377,33.437Zm16.673,0a2.129,2.129,0,1,1-2.129-2.129A2.132,2.132,0,0,1,49.05,33.437ZM47.928,22.708H27.175a2.185,2.185,0,0,1-2.183-2.183V9.232l25.118,3.46v7.826A2.187,2.187,0,0,1,47.928,22.708Z" transform="translate(0)" fill="#0f4156"/>
  </g>
</svg>
